<svg xmlns="http://www.w3.org/2000/svg" viewBox="0 0 256 256"><defs><linearGradient id="vite-a" x1="24.5%" x2="76.5%" y1="100%" y2="0%"><stop offset="0%" stop-color="#41D1FF"/><stop offset="100%" stop-color="#BD34FE"/></linearGradient><linearGradient id="vite-b" x1="50%" x2="50%" y1="0%" y2="100%"><stop offset="0%" stop-color="#FFBD4F"/><stop offset="100%" stop-color="#FF9640"/></linearGradient></defs><path fill="url(#vite-a)" d="M255.2 44.7L213.4 218.5c-1.9 8.3-7.4 12.5-15.5 12.5H58.1c-8.1 0-13.6-4.2-15.5-12.5L.8 44.7C-1.1 36.4 3.4 32 11.5 32h233c8.1 0 12.6 4.4 10.7 12.7z"/><path fill="url(#vite-b)" d="M185.6 32L128 149.3 70.4 32H11.5C3.4 32-1.1 36.4.8 44.7L58.1 218.5c1.9 8.3 7.4 12.5 15.5 12.5h139.8c8.1 0 13.6-4.2 15.5-12.5l57.3-173.8c1.9-8.3-2.6-12.7-10.7-12.7h-58.9z"/></svg>
