<?xml version="1.0" encoding="UTF-8"?>
<svg version="1.1" xmlns="http://www.w3.org/2000/svg" width="800" height="800">
<path d="M0 0 C264 0 528 0 800 0 C800 264 800 528 800 800 C536 800 272 800 0 800 C0 536 0 272 0 0 Z " fill="#DBF2DD" transform="translate(0,0)"/>
<path d="M0 0 C4.91868724 2.41462828 8.81034334 5.82322297 10.77453613 11.06826782 C11.51310928 13.5913119 12.16803336 16.1231742 12.796875 18.67578125 C13.0353717 19.6009404 13.27386841 20.52609955 13.51959229 21.47929382 C14.27498528 24.4208006 15.01269664 27.36641278 15.75 30.3125 C16.26055657 32.31344794 16.77226273 34.31410293 17.28515625 36.31445312 C18.53677857 41.20634231 19.77256772 46.10198785 21 51 C26.57270848 50.4298277 32.07410196 49.70408518 37.59375 48.73046875 C39.03564187 48.48022813 40.47762167 48.23049381 41.91967773 47.98120117 C42.66659882 47.85151947 43.4135199 47.72183777 44.18307495 47.58822632 C61.39160239 44.61190654 78.61712582 42.29726318 95.97436523 40.38549805 C98.88908068 40.05736635 98.88908068 40.05736635 101.28364563 39.51040649 C111.06310076 37.67283425 121.28380677 37.84190393 131.203125 37.83203125 C132.40580017 37.82870285 133.60847534 37.82537445 134.84759521 37.82194519 C137.37186302 37.816923 139.89613736 37.81453539 142.42041016 37.81469727 C146.22700224 37.8125132 150.03330277 37.79431275 153.83984375 37.77539062 C186.81837517 37.69828359 220.49614624 40.90026064 245.71875 64.56640625 C255.31350529 74.80190719 260.39592088 88.65111175 264 102 C264.91394531 101.92998779 265.82789063 101.85997559 266.76953125 101.7878418 C279.3158781 100.90242714 291.84623979 100.81383511 304.41992188 100.81469727 C307.99360964 100.81250392 311.5669912 100.79425855 315.140625 100.77539062 C327.59949589 100.74491642 339.6751241 101.18385927 352 103 C353.74144213 103.19681513 355.48354522 103.3879731 357.2265625 103.5703125 C380.66999379 106.37679284 406.55915957 115.07100595 422.32910156 133.55810547 C429.63653578 142.94393266 433.30069895 153.83877073 437 165 C437.81100288 167.41803417 438.62221706 169.83599748 439.43359375 172.25390625 C440.8803358 176.57536658 442.32110438 180.89875197 443.75317383 185.22509766 C448.59327711 199.84247353 453.54288363 214.42195199 458.5 229 C463.98197064 245.12665282 469.44527575 261.25832195 474.80493164 277.42605591 C477.95146173 286.91398279 481.14371742 296.38557218 484.3671875 305.84765625 C484.74924347 306.96930176 485.13129944 308.09094727 485.52493286 309.24658203 C487.41851304 314.80335146 489.31507559 320.35908447 491.21533203 325.91357422 C502.26602346 358.25462783 502.26602346 358.25462783 500 365 C498.12329027 368.81299754 495.8486166 371.34232214 492.5 373.9375 C482.82514034 376.87451097 472.37229413 374.62253342 462.6875 372.6875 C416.83072029 364.09463754 368.53461277 360.73044291 322.04296875 365.67919922 C318.69747107 366.03189369 315.34937372 366.34649489 312 366.66015625 C298.76351347 367.93978151 285.77723853 369.69838062 272.76318359 372.42773438 C269.64454634 373.07361578 266.5203872 373.686908 263.39453125 374.296875 C261.13796543 374.73930087 258.88145417 375.18200507 256.625 375.625 C255.57223877 375.83108887 254.51947754 376.03717773 253.43481445 376.24951172 C249.27363315 377.0788557 245.15461266 377.9000312 241.08984375 379.125 C235.28286217 380.76945496 230.07774584 381.03887292 224.625 378.3125 C219.47706996 373.77741877 216.98821348 369.14554238 214.5625 362.875 C213.95212044 361.34311167 213.34014131 359.81185972 212.7265625 358.28125 C212.43168945 357.54261719 212.13681641 356.80398438 211.83300781 356.04296875 C210.77600389 353.45064494 209.62169746 350.91147455 208.4375 348.375 C206.17985863 343.50441633 204.19737556 338.53881992 202.23022461 333.54638672 C200.75086216 329.81359336 199.19073927 326.14159227 197.5 322.5 C195.44865134 318.07095175 193.56907862 313.59056621 191.75 309.0625 C191.49154297 308.423125 191.23308594 307.78375 190.96679688 307.125 C189.76576917 304.10801842 188.74407569 301.15802562 188 298 C161.46306734 300.73358357 161.46306734 300.73358357 135.24267578 305.53857422 C132.63963748 306.07414382 130.02817475 306.48136479 127.40234375 306.890625 C119.50277938 308.17507657 111.78974357 310.17073827 104.03271484 312.11914062 C102.1269084 312.59618617 100.21972088 313.06770365 98.3125 313.5390625 C97.19488281 313.81959473 96.07726562 314.10012695 94.92578125 314.38916016 C92 315 92 315 88 315 C91.41523094 331.43652246 95.70357267 347.65474669 99.92205811 363.8984375 C101.26235275 369.06201853 102.59777678 374.22686178 103.93371582 379.39157104 C104.64037063 382.12344968 105.34833309 384.85498336 106.05749512 387.58621216 C107.96387647 394.9407807 109.83780296 402.30239023 111.66855621 409.67609596 C112.5048789 413.04117197 113.36079459 416.39878788 114.265625 419.74609375 C118.90186812 437.13200543 118.90186812 437.13200543 114.9375 444.3125 C112.24673989 448.08860873 109.45666901 450.58560804 105 452 C99.33332619 452.86038503 94.81571606 452.28344277 90 449 C85.88793566 444.7108116 84.0003898 441.01767428 82.60546875 435.21875 C82.4058403 434.44833374 82.20621185 433.67791748 82.00053406 432.88415527 C81.56027262 431.18110267 81.12679563 429.47628567 80.69915771 427.77001953 C79.96079578 424.84467531 79.19393546 421.92795519 78.42041016 419.01171875 C76.99156249 413.62132541 75.58122208 408.22633911 74.1784668 402.82910156 C73.30635793 399.47638759 72.42962795 396.12490281 71.55273438 392.7734375 C70.98930296 390.60944798 70.42614217 388.44538798 69.86328125 386.28125 C69.47575432 384.8028363 69.47575432 384.8028363 69.08039856 383.29455566 C67.68786267 377.91696963 66.4568243 372.54453518 65.43449402 367.0838623 C65.00461333 364.82062306 65.00461333 364.82062306 64 362 C63.17475416 359.52426247 62.65186357 357.3018297 62.1875 354.75 C61.13322007 349.22326695 59.59416394 343.87372359 58.05581665 338.46762085 C56.48538553 332.88619688 55.08468893 327.28396513 53.7734375 321.63671875 C50.94897996 309.6342504 47.91260017 297.68764122 44.86108398 285.74121094 C43.93346717 282.1092098 43.0085372 278.47653218 42.08398438 274.84375 C39.37111654 264.19649305 36.65171996 253.55238941 33.78979492 242.9440918 C32.03329699 236.39645389 30.32276113 229.85044579 29.0625 223.1875 C28.28191112 219.13672809 27.27509819 215.18185155 26.1953125 211.20068359 C23.9918817 203.01988105 21.8939195 194.81412049 19.8125 186.6015625 C19.4242722 185.07187981 19.03600636 183.54220677 18.64770508 182.01254272 C17.84035362 178.83111222 17.03370878 175.64950359 16.22753906 172.46777344 C15.20733598 168.44169827 14.18496414 164.41617742 13.16200256 160.39080238 C12.36130544 157.23871758 11.56198672 154.08628438 10.76303101 150.93375778 C10.38721463 149.45166796 10.01095277 147.96969101 9.63418579 146.48784256 C7.450495 137.89636519 5.3344891 129.29337215 3.33331299 120.65735054 C2.15399272 115.58084819 0.83150925 110.56534439 -0.625 105.5625 C-2.12822055 100.28062442 -3.4733872 95.05225542 -4.45654297 89.64550781 C-5.06926537 86.66282138 -5.83911086 83.75143938 -6.63671875 80.8125 C-6.99786761 79.47060774 -7.35841605 78.1285538 -7.71850586 76.78637695 C-7.9203952 76.03401764 -8.12228455 75.28165833 -8.33029175 74.50650024 C-10.54338232 66.22362177 -12.70779722 57.9280981 -14.85595703 49.62817383 C-15.45461876 47.32425802 -16.05785084 45.02152521 -16.66552734 42.7199707 C-17.5541785 39.35135727 -18.4270229 35.97897871 -19.296875 32.60546875 C-19.56868591 31.58857468 -19.84049683 30.5716806 -20.12054443 29.52397156 C-21.98449303 22.20041111 -23.81530089 14.63060177 -20.3125 7.625 C-14.06762405 0.53622189 -9.25043213 -0.94205249 0 0 Z " fill="#508954" transform="translate(159,8)"/>
<path d="M0 0 C21.12 0 42.24 0 64 0 C64 85.47 64 170.94 64 259 C43.21 259 22.42 259 1 259 C1 253.72 1 248.44 1 243 C-0.918125 244.381875 -2.83625 245.76375 -4.8125 247.1875 C-24.67888822 261.0805317 -48.95925931 264.8982115 -72.71899414 261.17919922 C-80.2598948 259.77445746 -87.12532467 257.36677648 -94 254 C-94.77601563 253.63132812 -95.55203125 253.26265625 -96.3515625 252.8828125 C-117.90580274 241.83912051 -130.21979044 221.83952456 -137.48828125 199.60131836 C-138.38041955 196.74671307 -139.20889484 193.88411993 -140 191 C-140.21350098 190.24686523 -140.42700195 189.49373047 -140.64697266 188.71777344 C-142.56970077 180.80428339 -142.3721465 172.66683978 -142.37060547 164.57177734 C-142.37494391 162.03282764 -142.41125502 159.49567091 -142.44921875 156.95703125 C-142.63002848 130.71843233 -134.39717362 106.40119178 -116.16796875 87.16796875 C-98.06918999 69.06918999 -76.55936554 61.82693503 -51.3125 61.8125 C-50.20455078 61.80025391 -49.09660156 61.78800781 -47.95507812 61.77539062 C-30.32145951 61.74447253 -15.80115274 65.72730273 -2 77 C-1.67 77.33 -1.34 77.66 -1 78 C-0.505 39.39 -0.505 39.39 0 0 Z " fill="#000000" transform="translate(618,529)"/>
<path d="M0 0 C1.50015152 -0.00564972 1.50015152 -0.00564972 3.03060913 -0.01141357 C18.23967281 -0.0405951 33.10379282 0.20406109 47.5625 5.5 C48.84181396 5.96237061 48.84181396 5.96237061 50.14697266 6.43408203 C60.90933972 10.502807 68.18003043 16.49320064 73.00671387 27.11535645 C74.85678338 31.52529463 76.53068826 36.00181313 78.19271851 40.48535156 C79.47672856 43.94871955 80.78562751 47.40251909 82.09309387 50.85708618 C82.77367239 52.6557558 83.45301354 54.45489407 84.13114929 56.25448608 C87.61204599 65.48050017 91.2356779 74.64809481 94.875 83.8125 C96.12483215 86.96569741 97.37334717 90.11941427 98.62109375 93.2734375 C99.07387947 94.41790596 99.07387947 94.41790596 99.53581238 95.585495 C102.54007202 103.18854412 105.49433818 110.81063055 108.4375 118.4375 C112.1404618 128.03120447 115.86251395 137.61694405 119.625 147.1875 C120.28060913 148.85619141 120.28060913 148.85619141 120.94946289 150.55859375 C123.23841706 156.37823587 125.5359472 162.1943421 127.84397888 168.00643921 C129.05898562 171.06711926 130.27152661 174.1287736 131.48391724 177.19049072 C132.07514115 178.68135741 132.66763818 180.17171989 133.26144409 181.66156006 C134.08748472 183.73412225 134.90939389 185.80827906 135.73046875 187.8828125 C136.20508545 189.07664551 136.67970215 190.27047852 137.16870117 191.50048828 C138.1875 194.3125 138.1875 194.3125 138.1875 196.3125 C137.52967529 196.25715088 136.87185059 196.20180176 136.1940918 196.14477539 C133.08797026 195.8851891 129.98149268 195.63010511 126.875 195.375 C125.32522461 195.24448242 125.32522461 195.24448242 123.74414062 195.11132812 C105.27056507 193.60442015 86.84572422 193.03969685 68.3125 193 C67.13240356 192.99738159 65.95230713 192.99476318 64.7364502 192.99206543 C43.95380937 192.98715741 23.74275073 194.37078254 3.1875 197.3125 C0.96628354 197.60521356 -1.25506206 197.89694953 -3.4765625 198.1875 C-16.85802357 200.02292732 -30.08237674 202.68266148 -43.3125 205.375 C-44.58356598 205.63271179 -44.58356598 205.63271179 -45.88031006 205.89562988 C-58.01189888 208.3382029 -58.01189888 208.3382029 -69.88476562 211.79467773 C-71.8125 212.3125 -71.8125 212.3125 -75.8125 212.3125 C-83.46034754 185.28147799 -90.31937923 158.06792624 -96.765625 130.7265625 C-98.91506769 121.62514004 -101.20559826 112.56362141 -103.63037109 103.53173828 C-105.5764048 96.25421805 -107.44781541 88.95857813 -109.29205513 81.6546402 C-109.83414776 79.50786574 -110.37749873 77.36141285 -110.92112732 75.21502686 C-112.26846397 69.89440298 -113.61381487 64.57327749 -114.95910645 59.25213623 C-116.10399523 54.72394665 -117.24971742 50.1959695 -118.39652824 45.6682663 C-118.92626186 43.5754557 -119.45480588 41.48234719 -119.98329163 39.38922119 C-121.66204256 32.75649534 -123.38161896 26.14529369 -125.29234314 19.57489014 C-125.8125 17.3125 -125.8125 17.3125 -125.8125 13.3125 C-125.07386719 13.19132812 -124.33523437 13.07015625 -123.57421875 12.9453125 C-122.55972656 12.77773437 -121.54523438 12.61015625 -120.5 12.4375 C-119.51386719 12.27507812 -118.52773437 12.11265625 -117.51171875 11.9453125 C-115.54671806 11.60916666 -113.58222693 11.26902366 -111.62329102 10.89916992 C-74.71442745 3.94896244 -37.54313812 0.07845699 0 0 Z " fill="#DBF2DD" transform="translate(313.8125,78.6875)"/>
<path d="M0 0 C0.80308594 0.60199219 1.60617187 1.20398438 2.43359375 1.82421875 C17.1445464 14.29606141 24.45502934 32.80061105 29 51 C29.20753906 51.80050781 29.41507813 52.60101562 29.62890625 53.42578125 C30.17966999 57.24634235 30 61.13994459 30 65 C8.88 65 -12.24 65 -34 65 C-35.98 59.555 -35.98 59.555 -38 54 C-43.94308728 45.72605097 -54.35971356 42.10255337 -64 40 C-78.06916705 38.99794657 -91.35972919 39.20264149 -103 48 C-105.85282921 52.27924381 -105.59594997 55.98147394 -105 61 C-102.32648892 67.44073123 -97.05484671 69.33525328 -91 72 C-87.48125402 73.29692645 -83.92136699 74.35889624 -80.3125 75.375 C-78.77758911 75.81706787 -78.77758911 75.81706787 -77.21166992 76.26806641 C-68.81215462 78.62677006 -60.33595052 80.52455612 -51.8125 82.375 C-0.26606029 93.61323879 -0.26606029 93.61323879 17 109 C17.66128906 109.55816406 18.32257813 110.11632812 19.00390625 110.69140625 C29.17598662 119.93699732 34.75078145 133.44400307 36 147 C37.04275345 169.85200215 35.73079748 190.4224963 21 209 C20.34257812 209.83402344 19.68515625 210.66804687 19.0078125 211.52734375 C1.33185655 232.5377749 -27.78275655 241.428296 -54.35473633 243.82128906 C-85.62447549 245.93383628 -122.04078276 241.39153581 -146.70703125 220.11328125 C-147.84205078 219.06720703 -147.84205078 219.06720703 -149 218 C-149.82886719 217.25105469 -150.65773437 216.50210938 -151.51171875 215.73046875 C-169.41810137 198.75642458 -177.79796808 177.22235111 -180 153 C-157.89 153 -135.78 153 -113 153 C-111.68 156.3 -110.36 159.6 -109 163 C-103.15398285 172.30048183 -93.88298296 176.66943331 -83.6875 179.875 C-69.16110066 183.09882442 -50.49992897 183.08900794 -37.375 175.5625 C-34.53082314 173.74438694 -33.19154655 172.17555707 -32 169 C-31.24512636 163.73972263 -31.2848456 159.37922634 -33.75 154.625 C-43.93127759 144.86328055 -63.21033775 143.43305037 -76.4453125 140.6328125 C-143.49978944 126.34371787 -143.49978944 126.34371787 -162.25 97.9375 C-172.87523249 79.8894504 -175.15544359 56.41411612 -170.56640625 36.13989258 C-165.71001836 17.68524154 -154.74376746 3.51919742 -138.39453125 -6.10546875 C-97.35419779 -29.01060307 -37.3835006 -30.49347585 0 0 Z " fill="#010101" transform="translate(296,547)"/>
<path d="M0 0 C0.8414859 0.00060425 1.6829718 0.0012085 2.54995728 0.00183105 C63.84738039 0.12118444 63.84738039 0.12118444 85.75 18.1875 C86.68392578 18.92419922 86.68392578 18.92419922 87.63671875 19.67578125 C93.54807847 25.25374541 95.15425392 32.75746492 97.29296875 40.3359375 C98.22019007 43.57116883 99.29712176 46.65558226 100.58203125 49.765625 C103.20684262 56.15544848 105.33145147 62.70796759 107.49261475 69.26473999 C108.27235503 71.63032082 109.0559042 73.99461227 109.84033203 76.35864258 C110.93830308 79.66879133 112.03479615 82.97942324 113.12988281 86.29052734 C115.62074482 93.82118276 118.12016213 101.3489824 120.625 108.875 C120.86821991 109.60608978 121.11143982 110.33717957 121.36203003 111.09042358 C125.4507698 123.37309658 129.61928984 135.62764653 133.8125 147.875 C138.03733401 160.2181996 142.25109847 172.56479091 146.39205933 184.93643188 C146.87712392 186.38483958 147.36321313 187.83290459 147.85037231 189.28060913 C148.51526726 191.25768622 149.17623085 193.23603042 149.8359375 195.21484375 C150.3935376 196.88148071 150.3935376 196.88148071 150.96240234 198.58178711 C151.75 201.1875 151.75 201.1875 151.75 203.1875 C144.47042276 202.80007152 137.2745653 202.34169522 130.0625 201.25 C106.72968443 197.73696934 83.25816642 197.00042863 59.69458008 197.00219727 C56.45055028 197.0000088 53.20686095 196.98174949 49.96289062 196.96289062 C31.41994736 196.91351608 13.13065338 198.16995373 -5.22265625 200.8125 C-8.94918046 201.27410816 -12.50257791 201.340456 -16.25 201.1875 C-11.42086314 195.2146202 -6.01175678 190.25034546 -0.25 185.1875 C1.41872659 183.68979197 3.08541719 182.18981216 4.75 180.6875 C7.30473199 178.3862296 9.86168767 176.08771481 12.42578125 173.796875 C22.02670712 166.25670326 22.02670712 166.25670326 27.07261658 155.75495911 C27.14830814 148.71435565 25.81501484 143.29452644 23.12890625 136.82421875 C22.7507225 135.87094193 22.37253876 134.9176651 21.9828949 133.9355011 C20.77692072 130.90797496 19.54530856 127.89168377 18.3125 124.875 C17.51977574 122.89586582 16.7287479 120.91605126 15.93945312 118.93554688 C12.79086479 111.05997854 9.58404912 103.20859644 6.35498047 95.36572266 C2.82124163 86.77908344 -0.68679105 78.19726672 -3.90574646 69.48710632 C-7.35954078 60.1473617 -10.9961816 50.87711147 -14.60058594 41.59472656 C-15.88064989 38.29794883 -17.15917523 35.00057744 -18.4375 31.703125 C-19.26293087 29.57548593 -20.08844864 27.44788057 -20.9140625 25.3203125 C-21.29019684 24.35030304 -21.66633118 23.38029358 -22.05386353 22.38088989 C-22.59495255 20.98796219 -22.59495255 20.98796219 -23.14697266 19.56689453 C-23.49318665 18.67423889 -23.83940063 17.78158325 -24.19610596 16.86187744 C-24.91880802 15.02793777 -25.6572492 13.20014536 -26.40887451 11.37786865 C-26.95937469 10.04202728 -26.95937469 10.04202728 -27.52099609 8.67919922 C-27.85312103 7.88633514 -28.18524597 7.09347107 -28.5274353 6.27658081 C-29.25 4.1875 -29.25 4.1875 -29.25 1.1875 C-19.50773188 0.01621735 -9.79601509 -0.01294802 0 0 Z " fill="#DBF2DD" transform="translate(466.25,141.8125)"/>
<path d="M0 0 C21.45 0 42.9 0 65 0 C65 63.69 65 127.38 65 193 C43.55 193 22.1 193 0 193 C0 129.31 0 65.62 0 0 Z " fill="#010101" transform="translate(373,595)"/>
<path d="M0 0 C11.51025884 8.50400161 15.90024286 17.23098437 18.25 31.3125 C19.55332372 43.20092579 15.89860447 55.69521301 8.79296875 65.27734375 C1.85285781 72.99420677 -7.82458566 76.88121671 -18.01171875 77.515625 C-29.58282232 77.67395253 -39.85748578 76.2804617 -48.75 68.3125 C-58.10006743 57.75895854 -60.64080454 46.71731393 -60.12890625 32.98046875 C-59.38393368 21.46025025 -55.17953224 11.61943523 -46.90625 3.50390625 C-34.51960398 -6.67446476 -13.74885825 -8.69447191 0 0 Z " fill="#D9F0DB" transform="translate(599.75,654.6875)"/>
<path d="M0 0 C1.23546142 1.03083013 2.44563057 2.09293916 3.625 3.1875 C4.16769531 3.68894531 4.71039063 4.19039062 5.26953125 4.70703125 C13.02878747 12.78058645 15.37243192 22.57889478 15.21655273 33.4597168 C14.73726415 43.42575928 11.54305965 52.32137509 4.50390625 59.54296875 C-4.2982801 67.24716928 -13.79415552 69.71292629 -25.3125 69.625 C-26.23740234 69.64498047 -27.16230469 69.66496094 -28.11523438 69.68554688 C-38.92918069 69.67796878 -46.44711587 65.97221756 -54.17578125 58.546875 C-62.86664586 49.22310551 -63.94644501 39.37840838 -63.62109375 26.99609375 C-62.95571316 16.69853695 -58.06681371 8.42593056 -50.625 1.375 C-36.84993931 -10.02049166 -14.41013083 -10.16064045 0 0 Z " fill="#010101" transform="translate(430.375,511.8125)"/>
<path d="M0 0 C5.26121702 -0.05020245 10.52228846 -0.08609045 15.78369141 -0.10986328 C17.56594274 -0.11979494 19.34817834 -0.1333448 21.13037109 -0.15087891 C32.60729866 -0.26079878 43.64607154 0.23068613 55 2 C53.90303373 5.2908988 53.15198144 5.96796717 50.5625 8.125 C47.37328247 10.83100275 44.22841403 13.57065115 41.125 16.375 C40.28324219 17.13425781 39.44148438 17.89351563 38.57421875 18.67578125 C37.72472656 19.44277344 36.87523437 20.20976562 36 21 C33.49043977 23.26284463 30.97986981 25.52448096 28.46484375 27.78125 C26.78361687 29.29462063 25.10940513 30.81581209 23.44140625 32.34375 C22.63574219 33.0759375 21.83007812 33.808125 21 34.5625 C20.278125 35.22378906 19.55625 35.88507813 18.8125 36.56640625 C17 38 17 38 15 38 C14.72325439 37.33057373 14.44650879 36.66114746 14.16137695 35.97143555 C12.88037739 32.87597541 11.59645319 29.78173612 10.3125 26.6875 C9.87744141 25.63498047 9.44238281 24.58246094 8.99414062 23.49804688 C6.43778789 17.34386437 3.77827348 11.26759744 0.90698242 5.25317383 C0 3 0 3 0 0 Z " fill="#DAF1DC" transform="translate(383,305)"/>
</svg>
